<?xml version="1.0" encoding="utf-8"?>
<!-- Generator: Adobe Illustrator 27.2.0, SVG Export Plug-In . SVG Version: 6.00 Build 0)  -->
<svg version="1.1" id="Ebene_1" xmlns="http://www.w3.org/2000/svg" xmlns:xlink="http://www.w3.org/1999/xlink" x="0px" y="0px"
	 viewBox="0 0 807 177" style="enable-background:new 0 0 807 177;" xml:space="preserve">
<style type="text/css">
	.st0{fill:#004A95;}
	.st1{fill-rule:evenodd;clip-rule:evenodd;fill:#004A95;}
</style>
<g>
	<g transform="matrix(0.1 0 0 -0.1 0 383)">
		<path class="st0" d="M887.8,3817.5c-4.6-5.6-20.5-7-85.5-7c-179.9,0-272.4-32.5-370.5-130.2c-33-32.5-49.3-65.1-81.8-159.9
			c-29.3-86.5-46.5-121.3-74.4-150.1c-21.4-21.8-58.1-41.4-86.5-46c-19.1-3.3-19.1-3.7-12.6-15.3c4.6-9.3,18.6-15.8,50.7-23.7
			c18.6-5.1,20-6,17.2-17.7c-6-24.6-7.9-59-3.3-66c4.2-5.6,7-4.6,20,7.9c8.4,7.9,31.1,22.3,50.2,31.6c76.2,37.7,80,44.2,78.1,136.2
			l-1.4,68.3l25.1,36.3c44.2,63.7,115.3,119,169.2,131.5c22.3,5.1,16.3-14.4-13-41.4c-13.9-12.6-25.6-27-25.6-31.1
			c0-7.4,1.9-7.4,24.2-1.9c30.2,7.9,56.7,7.9,79,0c18.6-6.5,27-2.8,27,11.6c0,4.6,8.4,18.6,18.1,31.1c26.5,33,48.8,40.9,96.7,33.9
			c68.8-9.8,134.8-54.4,168.3-113c10.2-18.1,16.7-24.6,24.6-24.6c13.5,0,16.3-13.9,5.1-26.5c-11.6-12.6-33.9-9.3-93.4,14.9
			c-55.8,22.3-75.3,23.7-88.8,6.5c-8.4-10.7-9.8-19.1-9.8-55.8c0-39.5,0.9-43.7,9.8-48.8c12.1-6.5,46-6.5,73.9,0
			c48.3,11.2,85.1,0.9,80.9-22.3c-2.3-11.2-5.6-98.1-6-151.5c0-12.6-3.7-40.9-7.9-62.8c-9.3-46-6.5-70.2,9.8-86.5
			c20.9-20.9,48.8-12.6,108.3,32.1c15.3,11.6,36.3,21.8,55.3,27c45.1,12.6,52.5,18.6,52.5,43.7c0,17.2,1.9,21.8,13.9,30.2
			c15.8,11.2,69.3,76.7,86.5,106c8.8,14.9,10.7,21.8,7,25.6c-3.7,3.7,9.3,19.5,45.1,56.2c40.4,41.4,53.9,59,68.3,87.9
			c15.8,31.6,18.1,40.9,18.1,69.7l0.5,33.5l-26.5,2.3c-30.7,2.8-38.6,10.2-43.2,40c-2.8,20.5-9.3,25.1-35.8,25.1
			c-14.9,0-24.6,13-29.3,38.6c-3.7,18.1-4.2,18.6-30.7,17.2c-13.5-0.5-19.1,1.9-27,12.1c-5.1,7-9.8,17.2-9.8,23.2
			c0,11.6-7,18.6-11.6,11.2c-7-11.6-27.4-4.2-46,16.3c-20.5,22.3-27.9,24.2-53,15.3c-15.3-5.6-16.3-5.6-30.7,11.6
			c-15.8,18.6-23.2,20.9-35.8,10.2c-12.1-11.6-45.1,1.9-51.6,20.9c-0.9,3.3-5.6,3.3-15.8-0.5c-17.7-7-34.4-2.8-52.1,12.1
			C895.7,3826.3,895.3,3826.3,887.8,3817.5z M1141.6,3655.3c26-22.8,58.1-66.9,76.7-106.4c20.5-44.2,25.1-84.1,19.1-160.8
			c-3.7-41.4-4.2-64.1-0.9-67.4c9.3-9.3,4.2-21.8-16.3-42.3c-27.4-27.9-32.1-27-28.4,3.7c16.3,138.5,17.7,156.6,12.6,193.4
			c-7.9,60-32.1,107.8-96.7,193.4l-17.7,22.8l15.8-8.8C1114.2,3677.6,1130.5,3665.5,1141.6,3655.3z M1124.4,3387.5
			c27.4-13.9,43.2-35.3,39.5-53c-1.4-7.9-3.7-15.3-4.6-16.3c-0.9-0.9-11.2,7-22.8,17.2c-24.6,21.4-47.4,33.5-64.6,33.5
			c-7,0-25.1-6.5-40.4-14.4c-15.8-7.9-29.3-13-30.7-11.6c-9.3,9.3,22.3,41.4,48.3,49.3C1072.8,3399.2,1105.8,3397.3,1124.4,3387.5z
			 M1094.7,3260.2c21.8-21.8,20.9-47.9-1.9-73.9c-12.1-13-16.3-14.9-35.8-14.4c-18.6,0.5-24.2,2.8-35.3,15.3
			c-19.5,21.4-18.1,47.4,2.8,68.3c13.5,13.5,19.1,15.8,37.2,15.8C1078.4,3271.3,1085.8,3268.5,1094.7,3260.2z M1142.5,3144.9
			c-0.9-6-5.1-11.2-9.3-12.1c-9.8-1.9-11.2,8.4-2.8,16.7C1139.3,3158.4,1144.4,3156.1,1142.5,3144.9z M1012.4,3105.9
			c12.6-8.4,12.6-31.1,0.5-33.5c-6-0.9-32.1,29.7-32.1,38.6C980.8,3116.1,1002.6,3112.8,1012.4,3105.9z M978.9,3061.7
			c1.4-2.8,0.5-7.4-2.8-10.2c-4.2-4.2-7-3.3-12.1,3.3c-9.8,13.9-8.8,22.8,2.3,16.7C971.5,3069.1,977.1,3064.5,978.9,3061.7z"/>
		<path class="st0" d="M1036.6,3253.7l-10.2-8.4l18.6-5.6c10.7-3.3,25.1-12.1,33-19.5c7.4-7.9,14.9-13.9,15.8-13.9
			c1.4,0,3.7,6,5.6,13.5C1106.3,3251.8,1063.1,3275.1,1036.6,3253.7z"/>
		<path class="st0" d="M1494.9,3311.3c-13.5-14.4-26.5-26-29.3-26s-15.3,10.7-27.9,23.2c-16.7,16.7-27,23.2-36.3,23.2
			c-11.6,0-12.6-0.9-8.8-12.6c2.3-7.4,4.2-40,4.2-73.4c0-57.6,0.5-61.4,13-82.7c14.4-24.6,37.2-41.4,67.4-50.2
			c26.5-7.4,59-36.7,73.4-65.5c14.9-29.7,27-77.2,34.4-136.7c6.5-50.2,4.2-76.2-7.4-86c-10.2-8.4-19.1,4.2-23.2,32.5
			c-1.4,11.6-6,28.8-9.8,37.7c-6,15.3-7,15.8-13,7.4c-3.7-4.6-8.8-18.6-11.2-31.6c-7-30.2-15.8-46.9-30.2-54.4
			c-15.3-8.4-19.5-21.8-10.2-32.1c13-14.9,26-49.7,26-70.7c0-74.4-125.5-163.2-214.3-151.5c-18.6,2.8-23.7,1.4-31.1-6.5
			c-8.8-9.3-8.8-9.3-19.5-0.9l-10.7,8.8l9.8,15.8c12.1,20,32.5,39,68.3,64.6c33.9,24.2,39.5,30.7,39.5,46.9
			c0,15.8-12.6,31.6-46,57.2l-27.4,20.5l-13.9-8.4c-19.1-11.6-27.4-25.1-38.6-62.8c-7-21.8-14.4-36.7-25.1-47.4
			c-17.7-17.7-26-19.1-43.2-6.5c-7,4.6-25.1,14.9-40.4,22.8c-15.3,7.4-33,19.1-39.5,25.1s-20.9,16.7-32.5,24.2
			c-11.6,7.4-40,27.9-63.2,45.1c-50.2,38.6-63.7,40.9-88.3,16.3l-15.8-15.8v-65.5c0-47.9-1.9-70.2-7-82.7
			c-10.7-25.1-8.8-31.1,13.5-50.7c18.6-16.7,20.9-21.4,32.5-66.9c13.9-56.7,36.3-105.1,49.7-109.2c14.9-5.1,22.8-22.3,29.7-66
			c12.6-76.2,62.8-156.6,109.2-172.5c12.6-4.6,14.4-3.7,24.2,12.1c5.6,9.3,12.6,18.6,14.9,20.5c7.9,5.6,27.9,4.2,48.3-2.8l19.1-7
			l5.1,15.3c7.4,22.3,22.8,27.9,52.5,19.1c13-3.7,24.2-7,24.6-7s2.3,6,4.2,13.5c4.2,20,10.7,23.2,46.5,24.6
			c31.6,1.4,32.5,1.9,33.9,13.9c1.9,17.2,17.2,27,40.9,27c18.1,0,19.1,0.5,24.6,20c7,22.8,17.2,35.8,28.8,35.8
			c15.3,0,22.8,5.6,22.8,18.1c0,17.2,4.6,22.3,27.9,30.7c26.5,9.3,32.5,14.9,32.5,30.7c0,14.9,12.1,25.1,37.2,32.1
			c15.8,4.2,16.3,5.1,14.9,23.2c-1.9,17.2,2.3,26,38.1,85.5c45.1,75.3,64.1,114.3,74.4,154.3c35.3,136.2-19.1,296.6-149.7,440.7
			c-15.3,17.2-30.7,38.6-34.4,48.3c-5.6,16.7-8.4,103.2-3.7,126C1533.5,3342.5,1519.5,3338.3,1494.9,3311.3z M932,2778.6
			c4.2-6.5-25.6-20.5-31.1-14.9c-8.4,8.4,0,19.5,14.4,19.5C922.7,2783.3,930.1,2781.4,932,2778.6z M945.9,2736.8
			c4.2-6.5-6-18.6-20-23.7c-8.4-3.3-14.4-2.3-22.8,3.3c-13.5,8.4-11.6,11.6,11.6,18.6C937.6,2742.4,942.7,2742.4,945.9,2736.8z
			 M1031,2659.6c22.8-15.8,31.1-54.4,16.7-75.3c-8.8-12.6-30.2-24.2-45.1-24.2c-23.7,0-49.7,32.1-49.7,61.8
			C952.9,2655,1003.1,2679.1,1031,2659.6z M904.1,2592.2c3.7-11.6,0.5-15.8-9.3-12.1c-8.8,3.7-9.3,21.8-0.5,21.8
			C898,2602,902.7,2597.8,904.1,2592.2z M1154.6,2581.5c7.4-15.8,7.9-20.9,3.3-40.9c-6-27.9-28.4-61.8-46.5-71.1
			c-22.8-11.6-49.7-13.9-63.2-5.1c-18.1,12.1-14.4,19.5,14.9,28.8c35.3,11.2,55.3,29.3,64.1,59c3.7,13,7,29.7,7,37.2
			C1134.2,2607.6,1143.5,2603.8,1154.6,2581.5z M1082.1,2396.5c41.8-24.6,85.1-42.8,126.9-52.5c38.6-8.8,115.3-8.8,150.1,0
			c15.3,4.2,28.4,6.5,29.3,5.1c4.2-3.7-40.4-21.8-78.1-31.1c-87.4-22.3-176.2-0.5-270.1,66.9c-19.5,13.9-39,25.1-43.2,25.1
			c-12.1-1.4-26.5,21.4-30.2,46.5c-1.9,12.1-2.8,23.7-1.4,25.6c0.9,2.3,19.5-11.6,41.4-30.2
			C1028.7,2432.8,1062.6,2408.2,1082.1,2396.5z"/>
		<path class="st0" d="M1029.1,2620.1c-12.1-13-24.2-19.5-44.6-22.3l-16.7-2.8l8.4-10.7c20.9-25.6,61.4-13,67.9,20.5
			C1047.7,2626.2,1041.2,2633.1,1029.1,2620.1z"/>
		<path class="st0" d="M95.3,3116.1c-17.7-6-35.8-15.8-40.4-21.4c-7.9-9.8-7.9-10.7,3.7-30.7c13.9-24.2,12.1-34.4-10.2-51.1
			c-17.2-13.5-19.5-22.3-8.8-36.3c12.1-16.3,8.8-33.5-9.3-47.4c-19.1-14.4-20-20.5-6.5-41.8c11.2-18.6,8.8-30.7-10.2-50.7L0,2822.3
			l13.9-16.7c13.9-17.2,13.9-17.2,7-37.2c-13-34.9-13-36.3-5.1-36.3c12.1,0,22.8-26.5,20.5-52.1c-1.9-15.3-0.5-22.3,3.3-22.3
			c16.7,0,27-36.7,16.7-62.8c-2.8-7-1.4-10.2,6-13.9c19.1-9.3,25.1-39.5,14.4-68.3c-1.9-4.2,2.8-7.9,12.6-10.7
			c17.7-5.6,27.4-18.6,71.1-99.9c40.9-75.8,57.2-97.6,99-131.1c37.7-29.7,113-68.3,156.6-80.4c17.2-4.6,54.4-8.8,95.3-10.2
			c69.3-2.3,104.6,2.3,181.3,24.2c27.9,7.9,53,6.5,88.3-5.6c22.8-7.9,77.2-41.4,87.9-54.4c5.1-6,7.4-6.5,10.2-1.9
			c6,9.3,4.6,42.8-2.3,63.2l-7,19.1l26.5,7.4c29.3,8.8,53.5,23.7,50.7,32.1c-1.9,5.1-3.7,6-23.7,7c-6,0-28.4,12.1-49.7,26
			c-46.9,31.1-63.2,36.7-91.6,32.5c-27.9-4.2-41.8-11.6-65.5-34.4c-27-26-53.5-34.9-92.5-31.6c-83.2,7.4-210.1,62.8-210.1,92
			c0,7,16.7,4.6,41.8-5.1c26-10.2,44.2-12.1,48.8-4.6c1.9,2.8-8.4,17.7-22.8,33c-15.8,16.7-28.8,36.3-33.9,50.7
			c-7.9,22.8-8.4,23.2-27.9,23.2c-10.7,0-30.2,2.3-43.7,5.1c-44.6,9.8-76.2,57.6-81.8,125c-3.7,43.7,9.3,107.8,27.4,136.2
			c10.2,15.8,13.5,26,12.1,36.3c-1.9,11.6,0,15.3,8.8,19.5c15.3,7,21.8-0.9,36.3-41.8c7.9-23.7,11.6-43.7,11.6-65.5
			c0-38.1,9.3-53.9,35.8-60.9c15.3-4.2,20-3.3,51.1,13.9c18.6,10.2,34.9,20.5,36.3,22.8c6,10.2-8.8,43.2-34.9,76.7
			c-23.2,30.2-37.2,57.2-37.2,73.4c0,1.9,17.2,11.2,38.6,20.9c20.9,10.2,64.6,33,96.7,50.7c32.1,18.1,73,37.2,90.6,42.8
			c41.8,12.6,55.3,25.6,51.1,49.3c-5.6,27.9-33.5,53.5-91.6,83.2c-28.4,14.9-58.1,33-66.5,40c-13.5,12.1-15.8,12.6-26,6.5
			c-16.3-8.8-33-7.9-64.1,2.8c-37.2,13-126,18.1-141.3,8.4c-10.2-7-13.9-6.5-45.6,3.7C197.6,3129.6,146.4,3133.3,95.3,3116.1z
			 M386.7,3063.6c11.2-4.2,21.8-8.8,23.7-10.7c1.9-1.9-21.8-14.4-52.5-27.9c-142.7-62.3-196.2-112-238-220.3
			c-23.7-60.9-28.8-65.5-25.6-23.7c7.9,103.2,69.7,186.9,177.6,239.4c25.6,12.6,52.5,29.3,60.4,36.7
			C347.7,3073.3,358.4,3074.7,386.7,3063.6z M557.8,3060.3c0-7.4-15.3-12.6-23.2-7.4c-3.3,1.9-4.2,6-2.8,8.8
			C536.4,3069.1,557.8,3068.2,557.8,3060.3z M538.7,2994.8c13-6.5,28.4-31.6,28.4-46c0-22.8-24.6-44.6-51.1-44.6
			c-40,0-65.1,41.8-46.9,76.2C480.2,3001.3,513.6,3008.2,538.7,2994.8z M384.4,2986.9c-0.9-3.3-4.6-17.7-7.9-32.1
			c-10.2-45.6-2.8-62.3,44.2-100.9l18.6-15.3l-24.2,1.9c-16.7,1.4-29.3,5.6-40.4,13.9c-21.8,16.7-40,54.8-40,83.7
			c0,19.5,2.3,25.1,15.8,38.6C365.8,2992,389.1,2998.9,384.4,2986.9z M664.7,2983.1c0-5.1-3.3-17.2-7.4-27l-7-17.2l-8.8,10.7
			c-9.3,11.2-8.4,20.9,3.7,34.9C654.5,2995.2,664.7,2994.8,664.7,2983.1z M711.2,2964.6c6.5-12.1-1.4-27.9-14.4-27.9
			c-11.2,0-15.3,9.8-11.6,25.6C688.9,2976.6,704.2,2978,711.2,2964.6z"/>
		<path class="st0" d="M481.6,2985c-22.3-22.3-4.6-71.6,25.6-71.6c7,0,7,1.4-0.9,17.2c-11.6,22.8-11.2,30.7,3.3,47.4l12.1,14.4
			h-16.3C496,2992.4,485.3,2989.2,481.6,2985z"/>
	</g>
	<g>
		<g>
			<g>
				<path class="st0" d="M441.1,165.7v-38.8H452c3.4,0,6.4,0.7,8.9,2.2c2.6,1.5,4.6,3.6,6,6.4c1.4,2.8,2.1,5.9,2.1,9.5v2.5
					c0,3.7-0.7,6.9-2.1,9.6c-1.4,2.8-3.4,4.9-6,6.3c-2.6,1.5-5.7,2.2-9.1,2.3H441.1z M446.2,131.1v30.4h5.4c3.9,0,7-1.2,9.2-3.7
					c2.2-2.5,3.3-5.9,3.3-10.5v-2.3c0-4.4-1-7.8-3.1-10.3c-2.1-2.4-5-3.7-8.8-3.7H446.2z"/>
				<path class="st0" d="M476.1,129.2c0-0.8,0.2-1.5,0.7-2c0.5-0.6,1.2-0.8,2.2-0.8c1,0,1.7,0.3,2.2,0.8c0.5,0.6,0.7,1.2,0.7,2
					c0,0.8-0.2,1.5-0.7,2c-0.5,0.5-1.2,0.8-2.2,0.8c-1,0-1.7-0.3-2.2-0.8C476.4,130.7,476.1,130,476.1,129.2z M481.4,165.7h-4.9
					v-28.8h4.9V165.7z"/>
				<path class="st0" d="M488.1,151c0-4.5,1-8.1,3.1-10.7c2.1-2.7,4.8-4,8.3-4c3.5,0,6.3,1.2,8.2,3.7l0.2-3.2h4.5V165
					c0,3.7-1.1,6.7-3.3,8.8c-2.2,2.1-5.2,3.2-8.9,3.2c-2.1,0-4.1-0.4-6.1-1.3c-2-0.9-3.5-2.1-4.6-3.6l2.6-3c2.1,2.6,4.7,3.9,7.8,3.9
					c2.4,0,4.3-0.7,5.6-2c1.3-1.3,2-3.3,2-5.7v-2.5c-2,2.3-4.7,3.4-8.1,3.4c-3.4,0-6.1-1.4-8.2-4.1
					C489.2,159.4,488.1,155.7,488.1,151z M493.1,151.6c0,3.2,0.7,5.8,2,7.7c1.3,1.9,3.2,2.8,5.6,2.8c3.1,0,5.4-1.4,6.8-4.2v-13.2
					c-1.5-2.8-3.8-4.1-6.8-4.1c-2.4,0-4.3,0.9-5.6,2.8C493.8,145.2,493.1,147.9,493.1,151.6z"/>
				<path class="st0" d="M520,129.2c0-0.8,0.2-1.5,0.7-2c0.5-0.6,1.2-0.8,2.2-0.8c1,0,1.7,0.3,2.2,0.8c0.5,0.6,0.7,1.2,0.7,2
					c0,0.8-0.2,1.5-0.7,2c-0.5,0.5-1.2,0.8-2.2,0.8c-1,0-1.7-0.3-2.2-0.8C520.2,130.7,520,130,520,129.2z M525.3,165.7h-4.9v-28.8
					h4.9V165.7z"/>
				<path class="st0" d="M539.8,129.9v7h5.4v3.8h-5.4v17.9c0,1.2,0.2,2,0.7,2.6c0.5,0.6,1.3,0.9,2.5,0.9c0.6,0,1.3-0.1,2.3-0.3v4
					c-1.3,0.4-2.6,0.5-3.8,0.5c-2.2,0-3.9-0.7-5-2c-1.1-1.3-1.7-3.2-1.7-5.7v-17.9h-5.2v-3.8h5.2v-7H539.8z"/>
				<path class="st0" d="M568.8,165.7c-0.3-0.6-0.5-1.6-0.7-3c-2.3,2.4-5,3.6-8.2,3.6c-2.8,0-5.2-0.8-7-2.4
					c-1.8-1.6-2.7-3.6-2.7-6.1c0-3,1.1-5.3,3.4-7c2.3-1.7,5.5-2.5,9.6-2.5h4.8v-2.3c0-1.7-0.5-3.1-1.5-4.1c-1-1-2.5-1.5-4.6-1.5
					c-1.8,0-3.2,0.4-4.4,1.3c-1.2,0.9-1.8,2-1.8,3.2h-5c0-1.4,0.5-2.8,1.5-4.2c1-1.3,2.4-2.4,4.2-3.2c1.7-0.8,3.7-1.2,5.8-1.2
					c3.3,0,5.9,0.8,7.8,2.5c1.9,1.7,2.9,3.9,2.9,6.9v13.3c0,2.6,0.3,4.8,1,6.3v0.4H568.8z M560.6,161.9c1.5,0,3-0.4,4.4-1.2
					s2.4-1.8,3-3.1v-5.9h-3.9c-6,0-9.1,1.8-9.1,5.3c0,1.5,0.5,2.8,1.5,3.6C557.7,161.5,559,161.9,560.6,161.9z"/>
				<path class="st0" d="M586,165.7h-4.9v-40.9h4.9V165.7z"/>
				<path class="st0" d="M619.6,148.4c-4.4-1.3-7.6-2.8-9.6-4.6c-2-1.8-3-4.1-3-6.8c0-3.1,1.2-5.6,3.7-7.6c2.4-2,5.6-3,9.5-3
					c2.7,0,5,0.5,7.1,1.5c2.1,1,3.7,2.5,4.8,4.3c1.1,1.8,1.7,3.8,1.7,5.9h-5.1c0-2.4-0.7-4.2-2.2-5.5c-1.5-1.3-3.6-2-6.3-2
					c-2.5,0-4.5,0.6-5.9,1.7c-1.4,1.1-2.1,2.7-2.1,4.6c0,1.6,0.7,2.9,2,4c1.3,1.1,3.6,2.1,6.8,3c3.2,0.9,5.7,1.9,7.6,3
					c1.8,1.1,3.2,2.4,4,3.8c0.9,1.5,1.3,3.2,1.3,5.1c0,3.1-1.2,5.7-3.7,7.6c-2.5,1.9-5.7,2.8-9.8,2.8c-2.7,0-5.2-0.5-7.5-1.5
					c-2.3-1-4.1-2.4-5.3-4.2c-1.3-1.8-1.9-3.8-1.9-6h5.1c0,2.3,0.9,4.2,2.6,5.6c1.7,1.4,4,2,6.9,2c2.7,0,4.8-0.6,6.2-1.7
					c1.4-1.1,2.2-2.6,2.2-4.5c0-1.9-0.7-3.4-2-4.4C625.5,150.4,623.1,149.4,619.6,148.4z"/>
				<path class="st0" d="M651.7,166.2c-3.9,0-7.1-1.3-9.5-3.8c-2.5-2.6-3.7-6-3.7-10.3v-0.9c0-2.9,0.5-5.4,1.6-7.7
					c1.1-2.2,2.6-4,4.6-5.3c2-1.3,4.1-1.9,6.4-1.9c3.7,0,6.7,1.2,8.7,3.7c2.1,2.5,3.1,6,3.1,10.6v2.1h-19.5c0.1,2.8,0.9,5.1,2.5,6.9
					c1.6,1.7,3.6,2.6,6.1,2.6c1.7,0,3.2-0.4,4.4-1.1c1.2-0.7,2.3-1.7,3.2-2.8l3,2.3C660.2,164.3,656.6,166.2,651.7,166.2z
					 M651.1,140.4c-2,0-3.7,0.7-5,2.2c-1.3,1.4-2.2,3.5-2.5,6.1H658v-0.4c-0.1-2.5-0.8-4.4-2-5.8
					C654.8,141.1,653.2,140.4,651.1,140.4z"/>
				<path class="st0" d="M682.6,141.3c-0.7-0.1-1.6-0.2-2.4-0.2c-3.2,0-5.4,1.4-6.6,4.1v20.5h-4.9v-28.8h4.8l0.1,3.3
					c1.6-2.6,3.9-3.9,6.9-3.9c1,0,1.7,0.1,2.2,0.4V141.3z"/>
				<path class="st0" d="M697.1,159l7.1-22.1h5l-10.3,28.8h-3.8l-10.4-28.8h5L697.1,159z"/>
				<path class="st0" d="M714,129.2c0-0.8,0.2-1.5,0.7-2c0.5-0.6,1.2-0.8,2.2-0.8c1,0,1.7,0.3,2.2,0.8c0.5,0.6,0.7,1.2,0.7,2
					c0,0.8-0.2,1.5-0.7,2c-0.5,0.5-1.2,0.8-2.2,0.8c-1,0-1.7-0.3-2.2-0.8C714.3,130.7,714,130,714,129.2z M719.4,165.7h-4.9v-28.8
					h4.9V165.7z"/>
				<path class="st0" d="M738.8,162.2c1.8,0,3.3-0.5,4.6-1.6c1.3-1.1,2-2.4,2.2-4h4.7c-0.1,1.7-0.7,3.2-1.7,4.7
					c-1,1.5-2.4,2.7-4.2,3.6c-1.7,0.9-3.6,1.3-5.6,1.3c-3.9,0-7-1.3-9.4-3.9c-2.3-2.6-3.5-6.2-3.5-10.7v-0.8c0-2.8,0.5-5.3,1.5-7.5
					c1-2.2,2.5-3.9,4.4-5.1c1.9-1.2,4.2-1.8,6.8-1.8c3.2,0,5.9,1,8.1,2.9c2.1,1.9,3.3,4.4,3.4,7.5h-4.7c-0.1-1.9-0.8-3.4-2.1-4.6
					c-1.3-1.2-2.8-1.8-4.7-1.8c-2.5,0-4.4,0.9-5.8,2.7c-1.4,1.8-2.1,4.4-2.1,7.8v0.9c0,3.3,0.7,5.9,2.1,7.7
					C734.3,161.3,736.3,162.2,738.8,162.2z"/>
				<path class="st0" d="M767.8,166.2c-3.9,0-7.1-1.3-9.5-3.8c-2.5-2.6-3.7-6-3.7-10.3v-0.9c0-2.9,0.5-5.4,1.6-7.7
					c1.1-2.2,2.6-4,4.6-5.3c2-1.3,4.1-1.9,6.4-1.9c3.7,0,6.7,1.2,8.7,3.7c2.1,2.5,3.1,6,3.1,10.6v2.1h-19.5c0.1,2.8,0.9,5.1,2.5,6.9
					c1.6,1.7,3.6,2.6,6.1,2.6c1.7,0,3.2-0.4,4.4-1.1c1.2-0.7,2.3-1.7,3.2-2.8l3,2.3C776.2,164.3,772.6,166.2,767.8,166.2z
					 M767.2,140.4c-2,0-3.7,0.7-5,2.2c-1.3,1.4-2.2,3.5-2.5,6.1h14.4v-0.4c-0.1-2.5-0.8-4.4-2-5.8
					C770.9,141.1,769.2,140.4,767.2,140.4z"/>
				<path class="st0" d="M801.5,158c0-1.3-0.5-2.4-1.5-3.1c-1-0.7-2.8-1.4-5.2-1.9c-2.5-0.5-4.5-1.2-5.9-1.9
					c-1.5-0.7-2.5-1.6-3.2-2.7c-0.7-1-1.1-2.3-1.1-3.7c0-2.4,1-4.4,3-6c2-1.6,4.6-2.5,7.7-2.5c3.3,0,5.9,0.8,8,2.5
					c2,1.7,3,3.8,3,6.5h-5c0-1.3-0.6-2.5-1.7-3.5c-1.1-1-2.6-1.5-4.3-1.5c-1.8,0-3.2,0.4-4.2,1.2c-1,0.8-1.5,1.8-1.5,3.1
					c0,1.2,0.5,2.1,1.4,2.7c0.9,0.6,2.6,1.2,5.1,1.7c2.5,0.6,4.5,1.2,6,2c1.5,0.8,2.7,1.7,3.4,2.8c0.7,1.1,1.1,2.4,1.1,3.9
					c0,2.6-1,4.6-3.1,6.2c-2.1,1.6-4.7,2.3-8,2.3c-2.3,0-4.4-0.4-6.1-1.2c-1.8-0.8-3.2-2-4.2-3.4c-1-1.5-1.5-3-1.5-4.8h4.9
					c0.1,1.7,0.7,3,2,3.9c1.2,1,2.9,1.5,4.9,1.5c1.9,0,3.4-0.4,4.5-1.1C800.9,160.3,801.5,159.3,801.5,158z"/>
			</g>
		</g>
	</g>
	<path class="st0" d="M225.5,29.6c6.5-16.7,12.3-19.2,31.4-19.2h18.4l-28.2,39.4c-9,12.5-11.6,16.4-35.1,48.1l1.8,3.1
		c8-0.3,18.4-0.3,56.7-0.3c10.8,0,14.5,0,22,0.3c2.2-11.8,2.9-15,6.9-30h-6.9c-1.8,5.6-4.7,13.6-12.7,18.1
		c-7.6,4.2-18.1,4.2-42.3,3.8c10.1-13.9,20.2-27.9,30-42.1c15.2-21.6,17.3-24.4,32.5-44.6l-1.8-2.8c-8.3,0.3-10.5,0.3-18.8,0.3
		h-32.5c-10.5,0-11.9-0.3-14.5-0.7c-2.5-0.3-3.3-1-4.7-2.1h-4c-1.8,12.5-2.2,15.7-4.7,28.9h6.1V29.6z"/>
	<path class="st1" d="M348.2,5.9l-3.6,9.8l-2.9,7.3c-2.9,7.7-6.1,15-9.4,22.6c-7.6,18.8-8.7,20.9-15.9,36.9
		c-4.3,8.7-5.4,10.8-13,11.8v5.6c5.8-0.3,11.6-0.7,17-0.7c5.8,0,10.8,0.3,17,0.7v-5.6c-3.6,0-10.1-0.3-10.1-6.3
		c0-2.1,0.7-4.5,1.4-6.6l6.5-18.1h27.5l6.5,21.6c0.4,1,0.7,2.1,0.7,3.1c0,5.2-4.3,5.9-10.1,6.3v5.6c6.9-0.3,13.7-0.7,20.6-0.7
		c6.5,0,12.3,0.3,19.5,0.7V94c-7.2-0.7-9.4-2.4-12.7-11.8l-23.9-71.7L360.1,0L348.2,5.9L348.2,5.9z M360.5,56.1h-22l11.9-31.7
		L360.5,56.1L360.5,56.1z"/>
	<path class="st0" d="M407.7,10.4c11.2,0.3,11.6,3.4,11.6,16.9c0,9.3-0.4,55.5-1.4,61c-1.1,4.8-4,6.2-10.1,6.2v5.5
		c5.8,0,11.2-0.3,16.6-0.3c5.1,0,10.1,0,15.2,0.3v-5.5c-6.5,0-9.4-1-10.5-8.6c-0.4-2.8-0.4-5.5-0.7-16.2L428,23.1l68,77.5h6.1
		c0-25.2,0-50,0.7-75.1c0.4-12.4,0.7-14.8,10.8-15.2V4.2c-5.1,0-10.5,0-15.2,0c-5.4,0-10.8,0-16.3,0V10c9.4,0,10.8,1.7,11.6,13.1
		c0.4,8.6,0.4,37.2,0.4,47.6L435.5,3.8c-5.8,0.3-9.4,0.3-14.1,0.3c-4.7,0-9,0-13.7-0.3L407.7,10.4L407.7,10.4z"/>
	<path class="st1" d="M523.1,9.4c10.8,0.3,11.2,3.1,11.2,17.1v39.4c0,8-0.4,18.5-1.1,22.3c-1.1,5.9-5.8,6.3-10.5,6.3v5.9
		c7.2-0.3,14.5-0.7,22.4-0.7c3.6,0,20.2,0.7,23.9,0.7c15.5,0,30.4-3.1,42.3-17.1c10.8-12.2,11.6-27.5,11.6-33.1
		c0-8.7-2.2-17.8-6.5-25.4C603.7,3.8,581.7,3.8,571.5,3.8c-4.7,0-25.7,0.7-30,0.7c-6.5,0-10.8-0.3-18.8-0.7v5.6H523.1z M552,68.6
		V30.3c0-8.4,0-10.4,0.4-18.8c4.7-0.3,8-0.7,11.6-0.7c26.7,0,39.8,14.6,39.8,39.4c0,13.2-2.9,27.2-13.4,35.2
		c-6.9,5.2-15.2,7.3-23.5,7.3c-14.1,0-14.8-3.1-14.8-13.9V68.6L552,68.6z"/>
	<path class="st0" d="M631.5,9.8c8.3,0.3,10.8,1.4,11.2,12.5c0,2.8,0,7.3,0,13.9v32.4v11.5c-0.4,12.2-1.1,13.9-11.2,14.6v5.9
		c11.6-0.3,14.8-0.7,26.4-0.7h22c12.3,0,15.2,0.3,24.9,0.7c1.8-10.1,2.5-12.9,5.8-25.1l-5.4-1.4c-5.4,15-9.8,19.2-27.8,19.2
		c-12.3,0-15.9-0.3-17-8.7c-0.4-4.9-0.4-25.1-0.4-31.3h11.6c14.1,0.3,17.3,0.3,17.7,12.2h5.8c-0.4-4.9-0.7-9.4-0.7-13.9
		c0-5.6,0.4-11.1,0.7-16.7h-5.8c-0.4,10.1-0.4,11.5-19.5,11.8h-9.4V33.4c0-9.1,0-15.7,0.4-18.8s1.1-3.8,8.7-3.8
		c23.1,0,24.9,3.8,27.1,17.1l6.1-0.7c-1.4-11.1-1.4-13.9-1.8-23.3c-12.3,0.7-14.8,0.7-28.6,0.7c-27.1,0-34.3,0-40.8-0.7L631.5,9.8
		L631.5,9.8z"/>
	<path class="st1" d="M717.4,9.4c6.1,0,10.5,0.7,10.8,8.7c0,3.8,0.4,29.3,0.4,38c0,6.6,0,25.8-0.7,31.3c-0.7,6.3-5.1,7-10.8,7v5.9
		c7.2-0.3,14.1-0.7,21-0.7c6.1,0,11.6,0.3,19.5,0.7v-5.9c-10.8-0.3-11.2-2.8-11.6-15.7V56.4c3.3,0,5.1,0,8.7-0.3L777,92.6
		c5.4,8,6.9,8,30,8v-6.3c-5.4-0.3-8.3-3.5-13.4-10.1c-8.3-11.5-10.1-14.3-22.4-33.1c3.3-1.7,9.4-4.5,13.7-11.1c2.2-3.1,4-7.7,4-13.6
		c0-10.8-5.8-15.7-7.6-17.4c-5.1-3.8-10.5-5.6-21.7-5.6c-4.3,0-22.4,0.7-26,0.7c-5.4,0-10.5,0-16.3-0.3L717.4,9.4L717.4,9.4z
		 M746.3,10.8c6.9,0,13.7-0.3,18.8,3.8c5.4,4.5,5.4,11.8,5.4,13.9c0,20.9-16.3,21.2-24.6,21.6c0-5.2,0-10.8,0-16
		C746,26.1,746.3,20.5,746.3,10.8L746.3,10.8z"/>
</g>
</svg>
