<svg xmlns="http://www.w3.org/2000/svg" width="600" height="400" viewBox="0 0 600 400">
  <rect width="600" height="400" fill="#0a101f"/>
  <circle cx="100" cy="200" r="35" fill="#1e293b" stroke="#3b82f6" stroke-width="2"/><text x="82" y="205" fill="#3b82f6" font-size="14" font-weight="bold" font-family="sans-serif">n8n</text>
  <circle cx="260" cy="110" r="28" fill="#1e293b" stroke="#3b82f680" stroke-width="1.5"/><text x="241" y="115" fill="#94a3b8" font-size="10" font-family="sans-serif">SEO</text>
  <circle cx="260" cy="200" r="28" fill="#1e293b" stroke="#3b82f680" stroke-width="1.5"/><text x="234" y="205" fill="#94a3b8" font-size="10" font-family="sans-serif">Content</text>
  <circle cx="260" cy="290" r="28" fill="#1e293b" stroke="#3b82f680" stroke-width="1.5"/><text x="244" y="295" fill="#94a3b8" font-size="10" font-family="sans-serif">Ads</text>
  <circle cx="420" cy="155" r="32" fill="#1e293b" stroke="#22c55e" stroke-width="2"/><text x="398" y="160" fill="#22c55e" font-size="11" font-weight="bold" font-family="sans-serif">Claude</text>
  <circle cx="420" cy="260" r="32" fill="#1e293b" stroke="#f59e0b" stroke-width="2"/><text x="403" y="265" fill="#f59e0b" font-size="11" font-weight="bold" font-family="sans-serif">GPT</text>
  <circle cx="540" cy="200" r="38" fill="#3b82f610" stroke="#3b82f6" stroke-width="2"/><text x="515" y="196" fill="#3b82f6" font-size="11" font-weight="bold" font-family="sans-serif">Output</text><text x="523" y="212" fill="#64748b" font-size="9" font-family="sans-serif">Auto</text>
  <line x1="135" y1="185" x2="232" y2="118" stroke="#3b82f640" stroke-width="1.2"/>
  <line x1="135" y1="200" x2="232" y2="200" stroke="#3b82f640" stroke-width="1.2"/>
  <line x1="135" y1="215" x2="232" y2="282" stroke="#3b82f640" stroke-width="1.2"/>
  <line x1="288" y1="118" x2="388" y2="148" stroke="#3b82f630" stroke-width="1"/>
  <line x1="288" y1="200" x2="388" y2="162" stroke="#3b82f630" stroke-width="1"/>
  <line x1="288" y1="200" x2="388" y2="252" stroke="#3b82f630" stroke-width="1"/>
  <line x1="288" y1="282" x2="388" y2="268" stroke="#3b82f630" stroke-width="1"/>
  <line x1="452" y1="163" x2="502" y2="192" stroke="#22c55e40" stroke-width="1.2"/>
  <line x1="452" y1="252" x2="502" y2="208" stroke="#f59e0b40" stroke-width="1.2"/>
</svg>