<svg xmlns="http://www.w3.org/2000/svg" width="600" height="400" viewBox="0 0 600 400">
  <rect width="600" height="400" fill="#0a101f" rx="16"/>
  <rect x="20" y="20" width="560" height="360" fill="#111827" rx="12" stroke="#1e293b"/>
  <rect x="40" y="40" width="120" height="60" fill="#1e293b" rx="8"/><text x="60" y="65" fill="#3b82f6" font-size="20" font-weight="bold" font-family="sans-serif">2,847</text><text x="60" y="85" fill="#64748b" font-size="10" font-family="sans-serif">Mentions</text>
  <rect x="180" y="40" width="120" height="60" fill="#1e293b" rx="8"/><text x="200" y="65" fill="#22c55e" font-size="20" font-weight="bold" font-family="sans-serif">87%</text><text x="200" y="85" fill="#64748b" font-size="10" font-family="sans-serif">Sentiment</text>
  <rect x="320" y="40" width="120" height="60" fill="#1e293b" rx="8"/><text x="340" y="65" fill="#f59e0b" font-size="20" font-weight="bold" font-family="sans-serif">+12.3%</text><text x="340" y="85" fill="#64748b" font-size="10" font-family="sans-serif">Growth</text>
  <rect x="460" y="40" width="120" height="60" fill="#1e293b" rx="8"/><text x="480" y="65" fill="#94a3b8" font-size="20" font-weight="bold" font-family="sans-serif">6</text><text x="480" y="85" fill="#64748b" font-size="10" font-family="sans-serif">AI Models</text>
  <rect x="40" y="120" width="340" height="240" fill="#1e293b" rx="8"/>
  <polyline points="60,330 100,310 140,280 180,290 220,250 260,230 300,200 340,180 360,160" fill="none" stroke="#3b82f6" stroke-width="2.5"/>
  <polyline points="60,330 100,320 140,300 180,310 220,270 260,260 300,240 340,220 360,210" fill="none" stroke="#3b82f640" stroke-width="1.5" stroke-dasharray="4"/>
  <rect x="400" y="120" width="180" height="240" fill="#1e293b" rx="8"/>
  <rect x="415" y="145" width="150" height="22" fill="#3b82f620" rx="4"/><rect x="415" y="145" width="120" height="22" fill="#3b82f6" rx="4"/><text x="420" y="160" fill="#fff" font-size="9" font-family="sans-serif">ChatGPT</text>
  <rect x="415" y="180" width="150" height="22" fill="#3b82f620" rx="4"/><rect x="415" y="180" width="95" height="22" fill="#3b82f6" rx="4"/><text x="420" y="195" fill="#fff" font-size="9" font-family="sans-serif">Gemini</text>
  <rect x="415" y="215" width="150" height="22" fill="#3b82f620" rx="4"/><rect x="415" y="215" width="80" height="22" fill="#3b82f6" rx="4"/><text x="420" y="230" fill="#fff" font-size="9" font-family="sans-serif">Claude</text>
  <rect x="415" y="250" width="150" height="22" fill="#3b82f620" rx="4"/><rect x="415" y="250" width="60" height="22" fill="#3b82f6" rx="4"/><text x="420" y="265" fill="#fff" font-size="9" font-family="sans-serif">Perplexity</text>
  <rect x="415" y="285" width="150" height="22" fill="#3b82f620" rx="4"/><rect x="415" y="285" width="45" height="22" fill="#3b82f6" rx="4"/><text x="420" y="300" fill="#fff" font-size="9" font-family="sans-serif">Copilot</text>
</svg>